<svg xmlns="http://www.w3.org/2000/svg" width="144" height="144" viewBox="0 0 144 144" shape-rendering="crispEdges"><rect width="144" height="144" fill="#10141b"/><rect x="0" y="0" width="144" height="144" fill="none" stroke="#30363d" stroke-width="8"/><rect x="40" y="16" width="8" height="8" fill="#414a61"/><rect x="48" y="16" width="8" height="8" fill="#414a61"/><rect x="56" y="16" width="8" height="8" fill="#414a61"/><rect x="64" y="16" width="8" height="8" fill="#414a61"/><rect x="72" y="16" width="8" height="8" fill="#414a61"/><rect x="80" y="16" width="8" height="8" fill="#414a61"/><rect x="88" y="16" width="8" height="8" fill="#414a61"/><rect x="96" y="16" width="8" height="8" fill="#414a61"/><rect x="32" y="24" width="8" height="8" fill="#414a61"/><rect x="40" y="24" width="8" height="8" fill="#414a61"/><rect x="48" y="24" width="8" height="8" fill="#414a61"/><rect x="56" y="24" width="8" height="8" fill="#414a61"/><rect x="64" y="24" width="8" height="8" fill="#414a61"/><rect x="72" y="24" width="8" height="8" fill="#414a61"/><rect x="80" y="24" width="8" height="8" fill="#414a61"/><rect x="88" y="24" width="8" height="8" fill="#414a61"/><rect x="96" y="24" width="8" height="8" fill="#414a61"/><rect x="104" y="24" width="8" height="8" fill="#414a61"/><rect x="24" y="32" width="8" height="8" fill="#414a61"/><rect x="32" y="32" width="8" height="8" fill="#414a61"/><rect x="40" y="32" width="8" height="8" fill="#414a61"/><rect x="48" y="32" width="8" height="8" fill="#414a61"/><rect x="56" y="32" width="8" height="8" fill="#414a61"/><rect x="64" y="32" width="8" height="8" fill="#414a61"/><rect x="72" y="32" width="8" height="8" fill="#414a61"/><rect x="80" y="32" width="8" height="8" fill="#414a61"/><rect x="88" y="32" width="8" height="8" fill="#414a61"/><rect x="96" y="32" width="8" height="8" fill="#414a61"/><rect x="104" y="32" width="8" height="8" fill="#414a61"/><rect x="112" y="32" width="8" height="8" fill="#414a61"/><rect x="24" y="40" width="8" height="8" fill="#414a61"/><rect x="32" y="40" width="8" height="8" fill="#414a61"/><rect x="40" y="40" width="8" height="8" fill="#e9bc90"/><rect x="48" y="40" width="8" height="8" fill="#e9bc90"/><rect x="56" y="40" width="8" height="8" fill="#e9bc90"/><rect x="64" y="40" width="8" height="8" fill="#e9bc90"/><rect x="72" y="40" width="8" height="8" fill="#e9bc90"/><rect x="80" y="40" width="8" height="8" fill="#e9bc90"/><rect x="88" y="40" width="8" height="8" fill="#e9bc90"/><rect x="96" y="40" width="8" height="8" fill="#e9bc90"/><rect x="104" y="40" width="8" height="8" fill="#414a61"/><rect x="112" y="40" width="8" height="8" fill="#414a61"/><rect x="24" y="48" width="8" height="8" fill="#414a61"/><rect x="32" y="48" width="8" height="8" fill="#e9bc90"/><rect x="40" y="48" width="8" height="8" fill="#e9bc90"/><rect x="48" y="48" width="8" height="8" fill="#e9bc90"/><rect x="56" y="48" width="8" height="8" fill="#e9bc90"/><rect x="64" y="48" width="8" height="8" fill="#e9bc90"/><rect x="72" y="48" width="8" height="8" fill="#e9bc90"/><rect x="80" y="48" width="8" height="8" fill="#e9bc90"/><rect x="88" y="48" width="8" height="8" fill="#e9bc90"/><rect x="96" y="48" width="8" height="8" fill="#e9bc90"/><rect x="104" y="48" width="8" height="8" fill="#e9bc90"/><rect x="112" y="48" width="8" height="8" fill="#414a61"/><rect x="24" y="56" width="8" height="8" fill="#414a61"/><rect x="32" y="56" width="8" height="8" fill="#e9bc90"/><rect x="40" y="56" width="8" height="8" fill="#e9bc90"/><rect x="56" y="56" width="8" height="8" fill="#e9bc90"/><rect x="64" y="56" width="8" height="8" fill="#e9bc90"/><rect x="72" y="56" width="8" height="8" fill="#e9bc90"/><rect x="80" y="56" width="8" height="8" fill="#e9bc90"/><rect x="96" y="56" width="8" height="8" fill="#e9bc90"/><rect x="104" y="56" width="8" height="8" fill="#e9bc90"/><rect x="112" y="56" width="8" height="8" fill="#414a61"/><rect x="24" y="64" width="8" height="8" fill="#414a61"/><rect x="32" y="64" width="8" height="8" fill="#e9bc90"/><rect x="40" y="64" width="8" height="8" fill="#e9bc90"/><rect x="56" y="64" width="8" height="8" fill="#e9bc90"/><rect x="64" y="64" width="8" height="8" fill="#e9bc90"/><rect x="72" y="64" width="8" height="8" fill="#e9bc90"/><rect x="80" y="64" width="8" height="8" fill="#e9bc90"/><rect x="96" y="64" width="8" height="8" fill="#e9bc90"/><rect x="104" y="64" width="8" height="8" fill="#e9bc90"/><rect x="112" y="64" width="8" height="8" fill="#414a61"/><rect x="24" y="72" width="8" height="8" fill="#414a61"/><rect x="32" y="72" width="8" height="8" fill="#e9bc90"/><rect x="40" y="72" width="8" height="8" fill="#e9bc90"/><rect x="48" y="72" width="8" height="8" fill="#e9bc90"/><rect x="56" y="72" width="8" height="8" fill="#e9bc90"/><rect x="64" y="72" width="8" height="8" fill="#e9bc90"/><rect x="72" y="72" width="8" height="8" fill="#e9bc90"/><rect x="80" y="72" width="8" height="8" fill="#e9bc90"/><rect x="88" y="72" width="8" height="8" fill="#e9bc90"/><rect x="96" y="72" width="8" height="8" fill="#e9bc90"/><rect x="104" y="72" width="8" height="8" fill="#e9bc90"/><rect x="112" y="72" width="8" height="8" fill="#414a61"/><rect x="24" y="80" width="8" height="8" fill="#414a61"/><rect x="32" y="80" width="8" height="8" fill="#e9bc90"/><rect x="40" y="80" width="8" height="8" fill="#e9bc90"/><rect x="48" y="80" width="8" height="8" fill="#e9bc90"/><rect x="56" y="80" width="8" height="8" fill="#e9bc90"/><rect x="64" y="80" width="8" height="8" fill="#b06a4a"/><rect x="72" y="80" width="8" height="8" fill="#b06a4a"/><rect x="80" y="80" width="8" height="8" fill="#e9bc90"/><rect x="88" y="80" width="8" height="8" fill="#e9bc90"/><rect x="96" y="80" width="8" height="8" fill="#e9bc90"/><rect x="104" y="80" width="8" height="8" fill="#e9bc90"/><rect x="112" y="80" width="8" height="8" fill="#414a61"/><rect x="32" y="88" width="8" height="8" fill="#414a61"/><rect x="40" y="88" width="8" height="8" fill="#e9bc90"/><rect x="48" y="88" width="8" height="8" fill="#e9bc90"/><rect x="56" y="88" width="8" height="8" fill="#e9bc90"/><rect x="64" y="88" width="8" height="8" fill="#e9bc90"/><rect x="72" y="88" width="8" height="8" fill="#e9bc90"/><rect x="80" y="88" width="8" height="8" fill="#e9bc90"/><rect x="88" y="88" width="8" height="8" fill="#e9bc90"/><rect x="96" y="88" width="8" height="8" fill="#e9bc90"/><rect x="104" y="88" width="8" height="8" fill="#414a61"/><rect x="48" y="96" width="8" height="8" fill="#414a61"/><rect x="56" y="96" width="8" height="8" fill="#e9bc90"/><rect x="64" y="96" width="8" height="8" fill="#e9bc90"/><rect x="72" y="96" width="8" height="8" fill="#e9bc90"/><rect x="80" y="96" width="8" height="8" fill="#e9bc90"/><rect x="88" y="96" width="8" height="8" fill="#414a61"/><rect x="40" y="104" width="8" height="8" fill="#3a4358"/><rect x="48" y="104" width="8" height="8" fill="#3a4358"/><rect x="56" y="104" width="8" height="8" fill="#3a4358"/><rect x="64" y="104" width="8" height="8" fill="#3a4358"/><rect x="72" y="104" width="8" height="8" fill="#3a4358"/><rect x="80" y="104" width="8" height="8" fill="#3a4358"/><rect x="88" y="104" width="8" height="8" fill="#3a4358"/><rect x="96" y="104" width="8" height="8" fill="#3a4358"/><rect x="32" y="112" width="8" height="8" fill="#3a4358"/><rect x="40" y="112" width="8" height="8" fill="#3a4358"/><rect x="48" y="112" width="8" height="8" fill="#3a4358"/><rect x="56" y="112" width="8" height="8" fill="#3a4358"/><rect x="64" y="112" width="8" height="8" fill="#3a4358"/><rect x="72" y="112" width="8" height="8" fill="#3a4358"/><rect x="80" y="112" width="8" height="8" fill="#3a4358"/><rect x="88" y="112" width="8" height="8" fill="#3a4358"/><rect x="96" y="112" width="8" height="8" fill="#3a4358"/><rect x="104" y="112" width="8" height="8" fill="#3a4358"/><rect x="24" y="120" width="8" height="8" fill="#3a4358"/><rect x="32" y="120" width="8" height="8" fill="#3a4358"/><rect x="40" y="120" width="8" height="8" fill="#3a4358"/><rect x="48" y="120" width="8" height="8" fill="#3a4358"/><rect x="56" y="120" width="8" height="8" fill="#3a4358"/><rect x="64" y="120" width="8" height="8" fill="#3a4358"/><rect x="72" y="120" width="8" height="8" fill="#3a4358"/><rect x="80" y="120" width="8" height="8" fill="#3a4358"/><rect x="88" y="120" width="8" height="8" fill="#3a4358"/><rect x="96" y="120" width="8" height="8" fill="#3a4358"/><rect x="104" y="120" width="8" height="8" fill="#3a4358"/><rect x="112" y="120" width="8" height="8" fill="#3a4358"/><rect x="24" y="128" width="8" height="8" fill="#3a4358"/><rect x="32" y="128" width="8" height="8" fill="#3a4358"/><rect x="40" y="128" width="8" height="8" fill="#3a4358"/><rect x="48" y="128" width="8" height="8" fill="#3a4358"/><rect x="56" y="128" width="8" height="8" fill="#3a4358"/><rect x="64" y="128" width="8" height="8" fill="#3fb950"/><rect x="72" y="128" width="8" height="8" fill="#3fb950"/><rect x="80" y="128" width="8" height="8" fill="#3a4358"/><rect x="88" y="128" width="8" height="8" fill="#3a4358"/><rect x="96" y="128" width="8" height="8" fill="#3a4358"/><rect x="104" y="128" width="8" height="8" fill="#3a4358"/><rect x="112" y="128" width="8" height="8" fill="#3a4358"/><rect x="48" y="56" width="8" height="8" fill="#e9bc90"/><rect x="88" y="56" width="8" height="8" fill="#e9bc90"/><rect x="48" y="64" width="8" height="8" fill="#e9bc90"/><rect x="88" y="64" width="8" height="8" fill="#e9bc90"/><g><rect x="48" y="56" width="8" height="8" fill="#22262e"/><rect x="88" y="56" width="8" height="8" fill="#22262e"/><rect x="48" y="64" width="8" height="8" fill="#22262e"/><rect x="88" y="64" width="8" height="8" fill="#22262e"/><animate attributeName="opacity" values="1;1;0;0;1;1" keyTimes="0;0.90;0.901;0.96;0.961;1" dur="4.5s" repeatCount="indefinite"/></g><g><rect x="48" y="64" width="8" height="8" fill="#22262e"/><rect x="88" y="64" width="8" height="8" fill="#22262e"/><rect x="48" y="72" width="8" height="8" fill="#22262e"/><rect x="88" y="72" width="8" height="8" fill="#22262e"/><animate attributeName="opacity" values="0;0;1;1;0;0" keyTimes="0;0.90;0.901;0.96;0.961;1" dur="4.5s" repeatCount="indefinite"/></g></svg>