<svg xmlns="http://www.w3.org/2000/svg" width="325" height="55" viewBox="0 0 325 55" shape-rendering="crispEdges"><g fill="#3fb950"><rect x="15" y="15" width="5" height="5"/><rect x="20" y="15" width="5" height="5"/><rect x="15" y="20" width="5" height="5"/><rect x="25" y="20" width="5" height="5"/><rect x="15" y="25" width="5" height="5"/><rect x="20" y="25" width="5" height="5"/><rect x="15" y="30" width="5" height="5"/><rect x="25" y="30" width="5" height="5"/><rect x="15" y="35" width="5" height="5"/><rect x="25" y="35" width="5" height="5"/><rect x="35" y="15" width="5" height="5"/><rect x="40" y="15" width="5" height="5"/><rect x="45" y="15" width="5" height="5"/><rect x="35" y="20" width="5" height="5"/><rect x="45" y="20" width="5" height="5"/><rect x="35" y="25" width="5" height="5"/><rect x="45" y="25" width="5" height="5"/><rect x="35" y="30" width="5" height="5"/><rect x="45" y="30" width="5" height="5"/><rect x="35" y="35" width="5" height="5"/><rect x="40" y="35" width="5" height="5"/><rect x="45" y="35" width="5" height="5"/><rect x="55" y="15" width="5" height="5"/><rect x="65" y="15" width="5" height="5"/><rect x="55" y="20" width="5" height="5"/><rect x="60" y="20" width="5" height="5"/><rect x="65" y="20" width="5" height="5"/><rect x="55" y="25" width="5" height="5"/><rect x="60" y="25" width="5" height="5"/><rect x="65" y="25" width="5" height="5"/><rect x="55" y="30" width="5" height="5"/><rect x="65" y="30" width="5" height="5"/><rect x="55" y="35" width="5" height="5"/><rect x="65" y="35" width="5" height="5"/><rect x="80" y="15" width="5" height="5"/><rect x="75" y="20" width="5" height="5"/><rect x="85" y="20" width="5" height="5"/><rect x="75" y="25" width="5" height="5"/><rect x="80" y="25" width="5" height="5"/><rect x="85" y="25" width="5" height="5"/><rect x="75" y="30" width="5" height="5"/><rect x="85" y="30" width="5" height="5"/><rect x="75" y="35" width="5" height="5"/><rect x="85" y="35" width="5" height="5"/><rect x="95" y="15" width="5" height="5"/><rect x="105" y="15" width="5" height="5"/><rect x="95" y="20" width="5" height="5"/><rect x="100" y="20" width="5" height="5"/><rect x="95" y="25" width="5" height="5"/><rect x="100" y="25" width="5" height="5"/><rect x="105" y="25" width="5" height="5"/><rect x="100" y="30" width="5" height="5"/><rect x="105" y="30" width="5" height="5"/><rect x="95" y="35" width="5" height="5"/><rect x="105" y="35" width="5" height="5"/></g><g fill="#c9d1d9"><rect x="115" y="35" width="5" height="5"/><rect x="120" y="35" width="5" height="5"/><rect x="125" y="35" width="5" height="5"/><rect x="135" y="15" width="5" height="5"/><rect x="140" y="15" width="5" height="5"/><rect x="145" y="15" width="5" height="5"/><rect x="135" y="20" width="5" height="5"/><rect x="145" y="20" width="5" height="5"/><rect x="135" y="25" width="5" height="5"/><rect x="145" y="25" width="5" height="5"/><rect x="135" y="30" width="5" height="5"/><rect x="145" y="30" width="5" height="5"/><rect x="135" y="35" width="5" height="5"/><rect x="140" y="35" width="5" height="5"/><rect x="145" y="35" width="5" height="5"/><rect x="155" y="15" width="5" height="5"/><rect x="165" y="15" width="5" height="5"/><rect x="155" y="20" width="5" height="5"/><rect x="160" y="20" width="5" height="5"/><rect x="155" y="25" width="5" height="5"/><rect x="160" y="25" width="5" height="5"/><rect x="165" y="25" width="5" height="5"/><rect x="160" y="30" width="5" height="5"/><rect x="165" y="30" width="5" height="5"/><rect x="155" y="35" width="5" height="5"/><rect x="165" y="35" width="5" height="5"/><rect x="175" y="35" width="5" height="5"/><rect x="180" y="35" width="5" height="5"/><rect x="185" y="35" width="5" height="5"/><rect x="195" y="15" width="5" height="5"/><rect x="200" y="15" width="5" height="5"/><rect x="205" y="15" width="5" height="5"/><rect x="195" y="20" width="5" height="5"/><rect x="195" y="25" width="5" height="5"/><rect x="205" y="25" width="5" height="5"/><rect x="195" y="30" width="5" height="5"/><rect x="205" y="30" width="5" height="5"/><rect x="195" y="35" width="5" height="5"/><rect x="200" y="35" width="5" height="5"/><rect x="205" y="35" width="5" height="5"/><rect x="215" y="15" width="5" height="5"/><rect x="220" y="15" width="5" height="5"/><rect x="225" y="15" width="5" height="5"/><rect x="220" y="20" width="5" height="5"/><rect x="220" y="25" width="5" height="5"/><rect x="220" y="30" width="5" height="5"/><rect x="215" y="35" width="5" height="5"/><rect x="220" y="35" width="5" height="5"/><rect x="225" y="35" width="5" height="5"/><rect x="235" y="15" width="5" height="5"/><rect x="240" y="15" width="5" height="5"/><rect x="245" y="15" width="5" height="5"/><rect x="240" y="20" width="5" height="5"/><rect x="240" y="25" width="5" height="5"/><rect x="240" y="30" width="5" height="5"/><rect x="240" y="35" width="5" height="5"/><rect x="255" y="15" width="5" height="5"/><rect x="265" y="15" width="5" height="5"/><rect x="255" y="20" width="5" height="5"/><rect x="265" y="20" width="5" height="5"/><rect x="255" y="25" width="5" height="5"/><rect x="260" y="25" width="5" height="5"/><rect x="265" y="25" width="5" height="5"/><rect x="255" y="30" width="5" height="5"/><rect x="265" y="30" width="5" height="5"/><rect x="255" y="35" width="5" height="5"/><rect x="265" y="35" width="5" height="5"/><rect x="275" y="15" width="5" height="5"/><rect x="285" y="15" width="5" height="5"/><rect x="275" y="20" width="5" height="5"/><rect x="285" y="20" width="5" height="5"/><rect x="275" y="25" width="5" height="5"/><rect x="285" y="25" width="5" height="5"/><rect x="275" y="30" width="5" height="5"/><rect x="285" y="30" width="5" height="5"/><rect x="275" y="35" width="5" height="5"/><rect x="280" y="35" width="5" height="5"/><rect x="285" y="35" width="5" height="5"/><rect x="295" y="15" width="5" height="5"/><rect x="300" y="15" width="5" height="5"/><rect x="295" y="20" width="5" height="5"/><rect x="305" y="20" width="5" height="5"/><rect x="295" y="25" width="5" height="5"/><rect x="300" y="25" width="5" height="5"/><rect x="295" y="30" width="5" height="5"/><rect x="305" y="30" width="5" height="5"/><rect x="295" y="35" width="5" height="5"/><rect x="300" y="35" width="5" height="5"/></g></svg>