<svg xmlns="http://www.w3.org/2000/svg" width="48" height="48" viewBox="0 0 48 48" shape-rendering="crispEdges"><rect x="36" y="0" width="4" height="4" fill="#8b949e"/><rect x="40" y="0" width="4" height="4" fill="#8b949e"/><rect x="44" y="0" width="4" height="4" fill="#8b949e"/><rect x="8" y="8" width="4" height="4" fill="#8b949e"/><rect x="12" y="8" width="4" height="4" fill="#8b949e"/><rect x="24" y="8" width="4" height="4" fill="#8b949e"/><rect x="28" y="8" width="4" height="4" fill="#8b949e"/><rect x="32" y="8" width="4" height="4" fill="#8b949e"/><rect x="36" y="8" width="4" height="4" fill="#8b949e"/><rect x="40" y="8" width="4" height="4" fill="#8b949e"/><rect x="44" y="8" width="4" height="4" fill="#8b949e"/><rect x="8" y="12" width="4" height="4" fill="#8b949e"/><rect x="12" y="12" width="4" height="4" fill="#8b949e"/><rect x="16" y="12" width="4" height="4" fill="#8b949e"/><rect x="20" y="12" width="4" height="4" fill="#8b949e"/><rect x="24" y="12" width="4" height="4" fill="#8b949e"/><rect x="28" y="12" width="4" height="4" fill="#8b949e"/><rect x="32" y="12" width="4" height="4" fill="#8b949e"/><rect x="36" y="12" width="4" height="4" fill="#8b949e"/><rect x="40" y="12" width="4" height="4" fill="#8b949e"/><rect x="44" y="12" width="4" height="4" fill="#8b949e"/><rect x="28" y="16" width="4" height="4" fill="#8b949e"/><rect x="32" y="16" width="4" height="4" fill="#8b949e"/><rect x="36" y="16" width="4" height="4" fill="#8b949e"/><rect x="40" y="16" width="4" height="4" fill="#8b949e"/><rect x="44" y="16" width="4" height="4" fill="#8b949e"/><rect x="12" y="20" width="4" height="4" fill="#8b949e"/><rect x="16" y="20" width="4" height="4" fill="#8b949e"/><rect x="20" y="20" width="4" height="4" fill="#8b949e"/><rect x="24" y="20" width="4" height="4" fill="#8b949e"/><rect x="28" y="20" width="4" height="4" fill="#8b949e"/><rect x="32" y="20" width="4" height="4" fill="#8b949e"/><rect x="36" y="20" width="4" height="4" fill="#8b949e"/><rect x="40" y="20" width="4" height="4" fill="#8b949e"/><rect x="44" y="20" width="4" height="4" fill="#8b949e"/><rect x="24" y="24" width="4" height="4" fill="#8b949e"/><rect x="28" y="24" width="4" height="4" fill="#8b949e"/><rect x="32" y="24" width="4" height="4" fill="#8b949e"/><rect x="36" y="24" width="4" height="4" fill="#8b949e"/><rect x="40" y="24" width="4" height="4" fill="#8b949e"/><rect x="44" y="24" width="4" height="4" fill="#8b949e"/><rect x="8" y="28" width="4" height="4" fill="#8b949e"/><rect x="12" y="28" width="4" height="4" fill="#8b949e"/><rect x="16" y="28" width="4" height="4" fill="#8b949e"/><rect x="24" y="28" width="4" height="4" fill="#8b949e"/><rect x="28" y="28" width="4" height="4" fill="#8b949e"/><rect x="32" y="28" width="4" height="4" fill="#8b949e"/><rect x="36" y="28" width="4" height="4" fill="#8b949e"/><rect x="40" y="28" width="4" height="4" fill="#8b949e"/><rect x="44" y="28" width="4" height="4" fill="#8b949e"/><rect x="20" y="32" width="4" height="4" fill="#8b949e"/><rect x="24" y="32" width="4" height="4" fill="#8b949e"/><rect x="28" y="32" width="4" height="4" fill="#8b949e"/><rect x="32" y="32" width="4" height="4" fill="#8b949e"/><rect x="36" y="32" width="4" height="4" fill="#8b949e"/><rect x="40" y="32" width="4" height="4" fill="#8b949e"/><rect x="44" y="32" width="4" height="4" fill="#8b949e"/><rect x="32" y="36" width="4" height="4" fill="#8b949e"/><rect x="36" y="36" width="4" height="4" fill="#8b949e"/><rect x="40" y="36" width="4" height="4" fill="#8b949e"/><rect x="44" y="36" width="4" height="4" fill="#8b949e"/><rect x="16" y="40" width="4" height="4" fill="#8b949e"/><rect x="20" y="40" width="4" height="4" fill="#8b949e"/><rect x="24" y="40" width="4" height="4" fill="#8b949e"/><rect x="28" y="40" width="4" height="4" fill="#8b949e"/><rect x="32" y="40" width="4" height="4" fill="#8b949e"/><rect x="36" y="40" width="4" height="4" fill="#8b949e"/><rect x="40" y="40" width="4" height="4" fill="#8b949e"/><rect x="44" y="40" width="4" height="4" fill="#8b949e"/></svg>